<?xml version="1.0" encoding="utf-8"?>
<!-- Generator: Adobe Illustrator 24.0.1, SVG Export Plug-In . SVG Version: 6.00 Build 0)  -->
<svg version="1.1" id="Capa_1" xmlns="http://www.w3.org/2000/svg" xmlns:xlink="http://www.w3.org/1999/xlink" x="0px" y="0px"
	 viewBox="0 0 512 341.3" style="enable-background:new 0 0 512 341.3;" xml:space="preserve">
<style type="text/css">
	.st0{fill:#2196F3;}
	.st1{fill:#455A64;}
	.st2{fill:#FAFAFA;}
</style>
<path class="st0" d="M53.3,0h405.3C488.1,0,512,23.9,512,53.3V288c0,29.5-23.9,53.3-53.3,53.3H53.3C23.9,341.3,0,317.5,0,288V53.3
	C0,23.9,23.9,0,53.3,0z"/>
<rect y="64" class="st1" width="512" height="85.3"/>
<g>
	<path class="st2" d="M160,234.7H74.7c-5.9,0-10.7-4.8-10.7-10.7s4.8-10.7,10.7-10.7H160c5.9,0,10.7,4.8,10.7,10.7
		S165.9,234.7,160,234.7z"/>
	<path class="st2" d="M224,277.3H74.7c-5.9,0-10.7-4.8-10.7-10.7S68.8,256,74.7,256H224c5.9,0,10.7,4.8,10.7,10.7
		C234.7,272.6,229.9,277.3,224,277.3z"/>
</g>
</svg>
